SplineFontDB: 3.2
FontName: glyph
FullName: glyph
FamilyName: glyph
Weight: Regular
Copyright: 2020 (c) Ken Vermette <vermette@gmail.com>\n2023 (c) Benson Muite <benson_muite@emailplus.org>
FontLog: "2020 - Initial creation by Ken Vermette+AAoA-2023 - Add envelope by Benson Muite"
Version: 
ItalicAngle: 0
UnderlinePosition: 0
UnderlineWidth: 0
Ascent: 960
Descent: 64
InvalidEm: 0
LayerCount: 2
Layer: 0 0 "Back" 1
Layer: 1 0 "Fore" 0
XUID: [1021 591 2085145597 14901211]
FSType: 0
OS2Version: 0
OS2_WeightWidthSlopeOnly: 0
OS2_UseTypoMetrics: 0
CreationTime: 1683214874
ModificationTime: 1683216664
PfmFamily: 17
TTFWeight: 400
TTFWidth: 5
LineGap: 92
VLineGap: 92
OS2TypoAscent: 0
OS2TypoAOffset: 1
OS2TypoDescent: 0
OS2TypoDOffset: 1
OS2TypoLinegap: 92
OS2WinAscent: 0
OS2WinAOffset: 1
OS2WinDescent: 0
OS2WinDOffset: 1
HheadAscent: 0
HheadAOffset: 1
HheadDescent: 0
HheadDOffset: 1
OS2Vendor: 'KDE '
MarkAttachClasses: 1
DEI: 91125
LangName: 1033
Encoding: Original
UnicodeInterp: none
NameList: AGL For New Fonts
DisplaySize: -48
AntiAlias: 1
FitToEm: 0
WinInfo: 0 16 4
BeginPrivate: 0
EndPrivate
TeXData: 1 0 0 524288 262144 174762 649216 1048576 174762 783286 444596 497025 792723 393216 433062 380633 303038 157286 324010 404750 52429 2506097 1059062 262144
BeginChars: 48 48

StartChar: share-diaspora
Encoding: 2 42 2
Width: 1024
HStem: 76 21G<324.292 366.612 657.388 699.708> 800 20G<429.926 594.074> 800 20G<429.926 594.074>
VStem: 429 166<549 820>
LayerCount: 2
Fore
SplineSet
430 820 m 1xd0
 594 820 l 1
 595 549 l 1
 853 632 l 1
 904 476 l 1
 646 392 l 1
 805 172 l 1
 672 76 l 1
 512 295 l 1
 352 76 l 1
 219 172 l 1
 378 392 l 1
 120 476 l 1
 171 632 l 1
 429 549 l 1
 430 820 l 1xd0
EndSplineSet
Validated: 513
EndChar

StartChar: go-previous
Encoding: 3 60 3
Width: 1024
HStem: 76 21G<645 685> 800 20G<645 685> 800 20G<645 685>
LayerCount: 2
Fore
SplineSet
665 820 m 1xc0
 698 787 l 1
 359 448 l 1
 698 109 l 1
 665 76 l 1
 293 448 l 1
 665 820 l 1xc0
EndSplineSet
Validated: 513
EndChar

StartChar: hamburger
Encoding: 4 61 4
Width: 1024
HStem: 76 93<140 233 465 559 791 884> 401 94<140 884> 727 93<140 884>
VStem: 140 93<76 169> 465 94<76 169> 791 93<76 169>
CounterMasks: 1 fc
LayerCount: 2
Fore
SplineSet
140 820 m 1
 884 820 l 1
 884 727 l 1
 140 727 l 1
 140 820 l 1
140 169 m 1
 233 169 l 1
 233 76 l 1
 140 76 l 1
 140 169 l 1
140 495 m 1
 884 495 l 1
 884 401 l 1
 140 401 l 1
 140 495 l 1
791 169 m 1
 884 169 l 1
 884 76 l 1
 791 76 l 1
 791 169 l 1
465 169 m 1
 559 169 l 1
 559 76 l 1
 465 76 l 1
 465 169 l 1
EndSplineSet
Validated: 5
EndChar

StartChar: go-next
Encoding: 5 62 5
Width: 1024
HStem: 76 21G<339 379> 800 20G<339 379> 800 20G<339 379>
LayerCount: 2
Fore
SplineSet
359 820 m 1xc0
 731 448 l 1
 359 76 l 1
 326 109 l 1
 665 448 l 1
 326 787 l 1
 359 820 l 1xc0
EndSplineSet
Validated: 517
EndChar

StartChar: instagram
Encoding: 6 66 6
Width: 1024
HStem: -61 93<197.713 826.674> 185 92<429.216 594.784> 619 92<429.216 594.784> 660 123<738.77 831.8> 868 92<207.348 817.33>
VStem: 0 93<140.517 755.501> 249 92<365.216 530.784> 683 92<365.216 530.784> 724 123<674.77 767.8> 932 91<143.788 752.652>
LayerCount: 2
Fore
SplineSet
512 868 m 0xce40
 375 868 359 867 305 865 c 0
 255 863 228 854 210 847 c 0
 186 838 169 827 151 809 c 0
 133 791 122 774 113 750 c 0
 106 732 98 705 96 655 c 0
 94 601 93 585 93 448 c 0
 93 311 94 295 96 241 c 0
 98 191 106 164 113 146 c 0
 122 122 134 106 152 88 c 0
 170 70 186 58 210 49 c 0
 228 42 255 34 305 32 c 0
 359 30 375 29 512 29 c 0
 649 29 665 30 719 32 c 0
 769 34 796 42 814 49 c 0
 838 58 855 70 873 88 c 0
 891 106 902 123 911 147 c 0
 918 165 927 192 929 242 c 0
 931 296 932 311 932 448 c 0
 932 585 931 601 929 655 c 0
 927 705 918 732 911 750 c 0
 902 774 891 791 873 809 c 0
 855 827 838 838 814 847 c 0
 796 854 769 863 719 865 c 0
 665 867 649 868 512 868 c 0xce40
512 960 m 1
 651 960 668 960 723 957 c 0
 777 955 814 946 847 933 c 0
 881 920 910 902 938 874 c 0
 967 846 984 817 997 783 c 0
 1010 751 1018 713 1020 659 c 0
 1022 604 1023 587 1023 448 c 0
 1023 309 1022 292 1020 237 c 0
 1018 183 1010 146 997 113 c 0
 984 79 966 50 938 22 c 0
 910 -6 881 -24 847 -37 c 0
 815 -50 777 -59 723 -61 c 0
 668 -63 651 -64 512 -64 c 0
 373 -64 356 -63 301 -61 c 0
 247 -59 210 -50 177 -37 c 0
 143 -24 114 -6 86 22 c 0
 57 50 40 79 27 113 c 0
 14 145 5 183 3 237 c 0
 1 292 0 309 0 448 c 0
 0 587 1 604 3 659 c 0
 5 713 14 750 27 783 c 0xdec0
 40 817 57 846 86 874 c 0
 114 903 143 920 177 933 c 0
 209 946 247 955 301 957 c 0
 356 959 373 960 512 960 c 1
512 711 m 0xef40
 657 711 775 593 775 448 c 0
 775 303 657 185 512 185 c 0
 367 185 249 303 249 448 c 0
 249 593 367 711 512 711 c 0xef40
512 277 m 0
 606 277 683 354 683 448 c 0
 683 542 606 619 512 619 c 0
 418 619 341 542 341 448 c 0
 341 354 418 277 512 277 c 0
847 721 m 0xdec0
 847 687 819 660 785 660 c 0
 751 660 724 687 724 721 c 0
 724 755 751 783 785 783 c 0
 819 783 847 755 847 721 c 0xdec0
EndSplineSet
Validated: 5
EndChar

StartChar: telegram
Encoding: 7 67 7
Width: 1024
HStem: -64 277<403.875 569.85>
VStem: 0 1024<165 731>
LayerCount: 2
Fore
SplineSet
512 960 m 0
 795 960 1024 731 1024 448 c 0
 1024 165 795 -64 512 -64 c 0
 229 -64 0 165 0 448 c 0
 0 731 229 960 512 960 c 0
764 609 m 2
 773 644 750 659 728 649 c 2
 235 459 l 2
 201 446 202 426 229 418 c 2
 355 379 l 1
 399 235 l 2
 405 219 401 213 418 213 c 0
 431 213 437 219 444 226 c 2
 505 286 l 1
 633 191 l 2
 657 178 674 185 680 213 c 2
 764 609 l 2
EndSplineSet
Validated: 33
EndChar

StartChar: share-facebook
Encoding: 8 70 8
Width: 1024
HStem: 76 21G<599 762> 426 142<512 599 762 870> 684 136<768.968 884>
VStem: 599 163<76 426 568 678.746>
LayerCount: 2
Fore
SplineSet
762 76 m 1
 599 76 l 1
 599 426 l 1
 512 426 l 1
 512 568 l 1
 599 568 l 1
 599 644 l 2
 599 755 645 820 775 820 c 2
 884 820 l 1
 884 684 l 1
 816 684 l 2
 765 684 762 665 762 630 c 2
 762 568 l 1
 884 568 l 1
 870 426 l 1
 762 426 l 1
 762 76 l 1
EndSplineSet
Validated: 513
EndChar

StartChar: share-gplus
Encoding: 9 71 9
Width: 1024
HStem: 215 93<297.116 446.424> 401 94<372 504 652 745 838 931> 588 93<297.116 447.428>
VStem: 140 93<372.915 523.085> 372 233<406.672 495> 745 93<308 401 495 588>
CounterMasks: 1 e0
LayerCount: 2
Fore
SplineSet
372 681 m 1
 434 681 493 656 537 612 c 1
 471 547 l 1
 445 573 409 588 372 588 c 0
 295 588 233 525 233 448 c 0
 233 371 295 308 372 308 c 0
 431 308 484 345 504 401 c 1
 372 401 l 1
 372 495 l 1
 600 495 l 1
 603 480 605 464 605 448 c 0
 605 319 501 215 372 215 c 0
 243 215 140 319 140 448 c 0
 140 577 243 681 372 681 c 1
745 588 m 1
 838 588 l 1
 838 495 l 1
 931 495 l 1
 931 401 l 1
 838 401 l 1
 838 308 l 1
 745 308 l 1
 745 401 l 1
 652 401 l 1
 652 495 l 1
 745 495 l 1
 745 588 l 1
EndSplineSet
Validated: 517
EndChar

StartChar: go-home
Encoding: 10 72 10
Width: 1024
HStem: 76 279<419 605> 76 46<233 419 605 791> 800 20G<492 532> 800 20G<492 532>
VStem: 186 47<122 429> 419 186<122 355> 791 47<122 429>
CounterMasks: 1 0e
LayerCount: 2
Fore
SplineSet
512 820 m 2x6e
 605 727 l 1
 745 727 l 1
 745 588 l 1
 884 448 l 1
 851 415 l 1
 838 429 l 1
 838 76 l 1
 186 76 l 1
 186 429 l 1
 173 415 l 1
 140 448 l 1
 512 820 l 2x6e
512 755 m 1
 233 475 l 1
 233 122 l 1
 419 122 l 1x4e
 419 355 l 1
 605 355 l 1x8e
 605 122 l 1
 791 122 l 1
 791 475 l 1
 512 755 l 1
EndSplineSet
Validated: 513
EndChar

StartChar: info
Encoding: 11 73 11
Width: 1024
HStem: 76 46<392.273 631.727> 588 93<465 559> 774 46<392.273 631.727>
VStem: 140 46<328.273 567.727> 465 94<215 541 588 681> 838 46<328.273 567.727>
CounterMasks: 1 1c
LayerCount: 2
Fore
SplineSet
465 681 m 1
 559 681 l 1
 559 588 l 1
 465 588 l 1
 465 681 l 1
465 541 m 1
 559 541 l 1
 559 215 l 1
 465 215 l 1
 465 541 l 1
512 820 m 0
 718 820 884 654 884 448 c 0
 884 242 718 76 512 76 c 0
 306 76 140 242 140 448 c 0
 140 654 306 820 512 820 c 0
512 774 m 0
 331 774 186 629 186 448 c 0
 186 267 331 122 512 122 c 0
 693 122 838 267 838 448 c 0
 838 629 693 774 512 774 c 0
EndSplineSet
Validated: 5
EndChar

StartChar: share-peertube
Encoding: 12 74 12
Width: 745
Flags: W
HStem: 924 20G<2 32 374 404>
LayerCount: 2
Fore
SplineSet
2 944 m 1
 374 696 l 1
 2 448 l 1
 2 944 l 1
2 448 m 1
 374 199 l 1
 2 -49 l 1
 2 448 l 1
374 696 m 1
 746 448 l 1
 374 199 l 1
 374 696 l 1
EndSplineSet
Validated: 517
EndChar

StartChar: logo-kde
Encoding: 13 75 13
Width: 1024
HStem: 76 147<434.048 518.915> 387 81<133 166.959> 696 104G<262.5 263.5 390 396 420 543.911 691.114 794> 800 20G<420 543.911>
VStem: 133 147<385.076 470.516> 420 123<317 534 596 808> 434 81<76 109.396>
LayerCount: 2
Fore
SplineSet
544 820 m 1xdc
 543 596 l 1
 706 815 l 1
 838 785 l 1
 668 566 l 1
 836 334 l 1
 707 293 l 1
 543 534 l 1
 543 317 l 1
 420 299 l 1
 420 808 l 1
 544 820 l 1xdc
263 696 m 2xea
 264 696 266 696 267 695 c 2
 360 634 l 2
 371 640 384 646 396 650 c 1
 396 599 l 1
 327 568 280 500 280 420 c 0
 280 311 368 223 477 223 c 0
 554 223 619 266 652 330 c 1
 679 290 701 259 701 259 c 2
 702 258 703 257 705 258 c 2
 715 261 l 1
 749 207 l 2
 751 205 750 201 748 199 c 2
 699 150 l 2
 697 148 693 148 691 150 c 2
 600 209 l 1
 581 198 562 190 541 184 c 1
 515 81 l 2
 514 78 512 76 509 76 c 2
 441 76 l 2
 438 76 435 78 434 81 c 2
 413 184 l 1
 392 190 373 198 355 208 c 1
 263 152 l 2
 261 150 257 151 255 153 c 2
 206 202 l 2
 204 204 204 207 206 210 c 2
 264 299 l 1
 253 318 244 340 239 362 c 1
 138 387 l 2
 135 388 133 390 133 393 c 2
 133 462 l 2
 133 465 135 467 138 468 c 2
 243 490 l 1
 249 509 257 527 267 544 c 1
 210 638 l 2
 208 640 209 644 211 646 c 2
 259 694 l 2
 260 695 262 696 263 696 c 2xea
EndSplineSet
Validated: 517
EndChar

StartChar: logo-plasmamobile
Encoding: 14 77 14
Width: 1024
HStem: 76 93<279 652> 308 60<386.918 445.082> 428 60<326.918 385.082> 548 40<386.007 425.993> 727 93<279 652>
VStem: 233 46<169 727> 326 60<428.918 487.082> 386 60<308.918 367.082> 386 40<548.007 587.993> 652 46<169 727>
LayerCount: 2
Fore
SplineSet
233 820 m 1xfc40
 698 820 l 1
 698 76 l 1
 233 76 l 1
 233 820 l 1xfc40
279 727 m 1
 279 169 l 1
 652 169 l 1
 652 727 l 1
 279 727 l 1
406 588 m 2
 417 588 426 579 426 568 c 2
 426 557 417 548 406 548 c 2
 395 548 386 557 386 568 c 2xfcc0
 386 579 395 588 406 588 c 2
505 588 m 1
 605 488 l 1
 505 388 l 1
 465 428 l 1
 525 488 l 1
 465 548 l 1
 505 588 l 1
356 488 m 2
 373 488 386 475 386 458 c 0
 386 441 373 428 356 428 c 0
 339 428 326 441 326 458 c 0xfe40
 326 475 339 488 356 488 c 2
416 368 m 2
 433 368 446 355 446 338 c 0
 446 321 433 308 416 308 c 2
 399 308 386 321 386 338 c 0xfd40
 386 355 399 368 416 368 c 2
EndSplineSet
Validated: 517
EndChar

StartChar: neon
Encoding: 15 78 15
Width: 1024
HStem: -65 44<512.561 539.807> 77 62<145.742 199.278 840 862> 83 45<512.561 539.807> 324 247<442.883 580.801> 749 62<484.239 538.762> 755 20G<108.5 144> 756 61<143.543 184 839 880.201> 767 24<430.6 483 539 598.549> 796 1G<143 144 201 238.5 785 822 879 880.5> 815 2<839.188 840> 915 44<483.193 511.438> 915 25<539 618.672>
VStem: -0 44<418.193 446.439> 141 3<774.188 775> 166 25<364.486 529.514> 201 2<797 797.858> 388 247<378.199 516.117> 820 62<78.7742 134.278 775.141 797.858> 832 25<364.486 529.554> 979 45<447.562 475.807>
LayerCount: 2
Fore
SplineSet
512 959 m 1x906fd0
 525 959 535 952 540 940 c 1
 542 940 l 2
 656 933 760 886 840 815 c 1
 839 815 l 1x905fd0
 843 816 847 817 851 817 c 1x920fd0
 868 817 882 803 882 786 c 2
 882 782 881 778 880 775 c 1
 879 776 l 1
 951 696 997 592 1004 476 c 1
 1016 472 1024 460 1024 447 c 2
 1024 434 1016 424 1004 419 c 1
 1004 417 l 2
 997 303 951 199 880 119 c 1
 881 115 882 112 882 108 c 1
 882 91 868 77 851 77 c 2
 847 77 843 78 840 79 c 1
 840 80 l 1
 760 8 656 -38 540 -45 c 1
 536 -57 525 -65 512 -65 c 2
 499 -65 488 -57 483 -45 c 1
 482 -45 l 2
 368 -38 264 8 184 79 c 1
 180 78 176 77 172 77 c 1
 155 77 141 91 141 108 c 2
 141 112 143 116 144 119 c 1
 72 199 27 302 20 418 c 1
 19 418 l 2
 7 422 0 434 -0 447 c 2
 0 460 8 471 20 476 c 1
 20 477 l 2
 27 591 73 695 144 775 c 1xd40fd0
 144 774 l 1
 142 778 141 782 141 786 c 1
 141 803 155 817 172 817 c 2x920fd0
 176 817 180 817 184 815 c 1
 184 814 l 1
 264 886 368 932 483 939 c 1
 487 951 499 959 512 959 c 1x906fd0
484 915 m 2x902fd0
 482 915 l 2
 374 908 276 864 201 797 c 1x909fd0
 201 798 l 1
 202 795 203 790 203 786 c 1
 203 769 189 756 172 756 c 2
 168 756 165 757 162 758 c 1
 94 682 51 584 44 475 c 1
 54 470 61 459 61 447 c 2
 61 435 54 425 44 420 c 1
 44 418 l 2
 51 310 94 213 161 137 c 1
 165 138 168 139 172 139 c 1
 189 139 203 125 203 108 c 2
 203 104 202 100 201 97 c 1
 277 30 375 -13 484 -20 c 1
 489 -10 500 -3 512 -3 c 2
 524 -3 534 -11 539 -21 c 1
 541 -21 l 2
 649 -14 747 30 822 97 c 1
 821 101 820 104 820 108 c 1
 820 125 834 139 851 139 c 2
 855 139 859 138 862 137 c 1
 862 136 l 1
 929 212 972 311 979 420 c 1
 969 425 962 435 962 447 c 2
 962 459 969 470 979 475 c 1
 979 476 l 2
 972 584 929 683 862 758 c 1
 858 757 855 756 851 756 c 1xd20fd0
 834 756 820 769 820 786 c 2
 820 790 821 795 822 798 c 1
 823 797 l 1
 747 864 648 908 539 915 c 1x909fd0
 539 914 l 2
 534 904 524 898 512 898 c 2
 500 898 489 905 484 915 c 2x902fd0
512 811 m 0x980fb0
 525 811 535 803 540 791 c 1
 542 791 l 2
 719 776 857 628 857 447 c 2
 857 266 718 118 540 103 c 1
 536 91 525 83 512 83 c 2
 499 83 488 91 483 103 c 1
 482 103 l 2
 305 118 166 266 166 447 c 2
 166 628 305 776 483 791 c 1xb10fb0
 487 803 499 811 512 811 c 0x980fb0
539 767 m 1
 539 766 l 2
 534 756 524 749 512 749 c 2x980fb0
 500 749 489 757 484 767 c 1
 483 766 l 2
 319 751 191 614 191 447 c 2
 191 280 319 143 484 128 c 1
 489 138 500 145 512 145 c 2
 524 145 534 138 539 128 c 1
 540 128 l 2
 704 143 832 280 832 447 c 2
 832 614 704 752 539 767 c 1
635 447 m 0
 635 379 580 324 512 324 c 0
 444 324 388 379 388 447 c 0
 388 515 444 571 512 571 c 0
 580 571 635 515 635 447 c 0
EndSplineSet
Validated: 5
EndChar

StartChar: logo-plasma
Encoding: 16 80 16
Width: 1024
HStem: 76 159<323.875 434.125> 395 159<164.352 274.125> 714 106<308.854 395.808> 800 20G<598 638>
VStem: 140 159<419.875 529.648> 299 160<100.352 210.125> 299 107<724.609 809.391>
LayerCount: 2
Fore
SplineSet
618 288 m 1xd0
 512 395 l 1
 672 554 l 1
 512 714 l 1xe0
 618 820 l 1
 884 554 l 1
 618 288 l 1xd0
459 155 m 0xc4
 459 111 423 76 379 76 c 0
 335 76 299 111 299 155 c 0
 299 199 335 235 379 235 c 0
 423 235 459 199 459 155 c 0xc4
299 475 m 0xc8
 299 431 263 395 219 395 c 0
 175 395 140 431 140 475 c 0
 140 519 175 554 219 554 c 0
 263 554 299 519 299 475 c 0xc8
406 767 m 0xe2
 406 738 381 714 352 714 c 0
 323 714 299 738 299 767 c 0
 299 796 323 820 352 820 c 0
 381 820 406 796 406 767 c 0xe2
EndSplineSet
Validated: 513
EndChar

StartChar: search
Encoding: 17 81 17
Width: 1024
HStem: 256 64<321.013 510.987> 768 64<321.013 510.987>
VStem: 128 64<449.013 638.987> 640 64<449.013 638.987>
LayerCount: 2
Fore
SplineSet
416 832 m 0
 576 832 704 704 704 544 c 0
 704 384 576 256 416 256 c 0
 256 256 128 384 128 544 c 0
 128 704 256 832 416 832 c 0
416 768 m 0
 292 768 192 668 192 544 c 0
 192 420 292 320 416 320 c 0
 540 320 640 420 640 544 c 0
 640 668 540 768 416 768 c 0
576 339 m 1
 621 384 l 1
 896 109 l 1
 851 64 l 1
 576 339 l 1
EndSplineSet
Validated: 5
EndChar

StartChar: share-reddit
Encoding: 18 82 18
Width: 1024
HStem: 122 80<415.4 608.6> 495 138<356.186 411.606 612.394 666.2> 588 46<158.733 259.077 765.232 865.262> 705 140<781.206 882.794> 770 21G<610.833 738.478>
VStem: 93 47<467.235 569.098> 419 186<408.394 487.606> 762 140<724.206 825.794> 884 47<467.235 569.098>
LayerCount: 2
Fore
SplineSet
554 847 m 1xc680
 743 816 l 1
 735 770 l 1
 586 794 l 1
 538 633 l 1xce80
 604 630 668 615 723 589 c 1
 745 617 779 634 815 634 c 0
 879 634 931 582 931 518 c 0
 931 479 912 443 879 421 c 1
 883 407 884 392 884 378 c 0
 884 237 718 122 512 122 c 0
 306 122 140 237 140 378 c 0
 140 392 141 407 145 421 c 1
 113 443 93 479 93 518 c 0
 93 582 145 634 209 634 c 0xa680
 245 634 279 617 301 589 c 1
 357 616 423 630 491 633 c 1
 554 847 l 1xc680
832 845 m 0x97
 871 845 902 814 902 775 c 0
 902 736 871 705 832 705 c 0
 793 705 762 736 762 775 c 0
 762 814 793 845 832 845 c 0x97
209 588 m 1xa6
 170 588 140 557 140 518 c 0
 140 498 148 479 163 466 c 1
 183 504 217 538 260 566 c 1
 247 580 228 588 209 588 c 1xa6
814 588 m 1
 795 588 777 580 764 566 c 1
 807 538 841 504 861 466 c 1
 876 479 884 498 884 518 c 0xa680
 884 557 854 588 815 588 c 2
 814 588 l 1
372 495 m 1xc6
 346 495 326 474 326 448 c 0
 326 422 346 401 372 401 c 0
 398 401 419 422 419 448 c 0
 419 474 398 495 372 495 c 1xc6
652 495 m 1
 626 495 605 474 605 448 c 0
 605 422 626 401 652 401 c 0
 678 401 698 422 698 448 c 0
 698 474 678 495 652 495 c 1
374 308 m 1
 339 291 l 1
 339 291 351 268 378 246 c 0
 405 224 449 202 512 202 c 0
 575 202 619 224 646 246 c 0
 673 268 685 291 685 291 c 1
 650 308 l 1
 650 308 642 293 621 276 c 0
 600 259 566 241 512 241 c 0
 458 241 424 259 403 276 c 0
 382 293 374 308 374 308 c 1
EndSplineSet
Validated: 517
EndChar

StartChar: settings
Encoding: 19 83 19
Width: 1024
HStem: 76 46<205.472 306.528> 262 46<205.472 306.528> 681 46<140 884> 800 20G<503 567> 800 20G<503 567>
VStem: 140 46<141.472 242.528> 419 233<636.877 771.123>
LayerCount: 2
Fore
SplineSet
535 820 m 1xf6
 599 820 652 768 652 704 c 1
 652 640 599 588 535 588 c 1
 471 588 419 640 419 704 c 1
 419 768 471 820 535 820 c 1xf6
256 308 m 0
 320 308 372 256 372 192 c 0
 372 128 320 76 256 76 c 0
 192 76 140 128 140 192 c 0
 140 256 192 308 256 308 c 0
256 262 m 0
 217 262 186 231 186 192 c 0
 186 153 217 122 256 122 c 0
 295 122 326 153 326 192 c 0
 326 231 295 262 256 262 c 0
140 727 m 1
 884 727 l 1
 884 681 l 1
 140 681 l 1
 140 727 l 1
326 215 m 1
 326 169 l 1
 884 169 l 1
 884 215 l 1
 326 215 l 1
EndSplineSet
Validated: 5
EndChar

StartChar: share-twitter
Encoding: 20 84 20
Width: 1024
HStem: 659 92G<184.5 228.5 613 677 849 858.5 870.5 874>
LayerCount: 2
Fore
SplineSet
884 679 m 1
 864 648 838 622 808 600 c 1
 808 593 809 587 809 580 c 0
 809 378 655 145 374 145 c 0
 288 145 208 171 140 214 c 1
 152 213 164 212 176 212 c 0
 248 212 314 236 366 277 c 1
 299 278 242 322 223 383 c 1
 232 381 242 381 252 381 c 0
 266 381 279 383 292 386 c 1
 222 400 170 462 170 536 c 0
 170 537 170 537 170 538 c 1
 191 527 214 520 239 519 c 1
 198 546 171 593 171 646 c 0
 171 674 178 700 191 723 c 1
 266 631 379 569 506 563 c 1
 503 574 502 586 502 598 c 0
 502 682 571 751 655 751 c 0
 699 751 739 732 767 702 c 1
 802 709 834 721 864 739 c 1
 853 703 829 674 797 655 c 1
 828 659 857 667 884 679 c 1
EndSplineSet
Validated: 517
EndChar

StartChar: video
Encoding: 21 86 21
Width: 1024
HStem: 169 46<140 884> 681 46<140 884>
VStem: 93 47<215 681> 884 47<215 681>
LayerCount: 2
Fore
SplineSet
93 727 m 1
 931 727 l 1
 931 169 l 1
 93 169 l 1
 93 727 l 1
140 681 m 1
 140 215 l 1
 884 215 l 1
 884 681 l 1
 140 681 l 1
419 588 m 1
 605 448 l 1
 419 308 l 1
 419 588 l 1
EndSplineSet
Validated: 1
EndChar

StartChar: window-new
Encoding: 22 87 22
Width: 1024
HStem: 76 46<186 605> 169 46<652 745 791 884> 634 186<186 838>
VStem: 140 46<122 634> 745 46<76 169 215 308> 838 46<355 634>
LayerCount: 2
Fore
SplineSet
140 820 m 1
 884 820 l 1
 884 355 l 1
 838 355 l 1
 838 634 l 1
 186 634 l 1
 186 122 l 1
 605 122 l 1
 605 76 l 1
 140 76 l 1
 140 820 l 1
745 308 m 1
 791 308 l 1
 791 215 l 1
 884 215 l 1
 884 169 l 1
 791 169 l 1
 791 76 l 1
 745 76 l 1
 745 169 l 1
 652 169 l 1
 652 215 l 1
 745 215 l 1
 745 308 l 1
EndSplineSet
Validated: 513
EndChar

StartChar: close
Encoding: 23 88 23
Width: 1024
HStem: 76 21G<153 193 831 871> 800 20G<153 193 831 871> 800 20G<153 193 831 871>
LayerCount: 2
Fore
SplineSet
173 820 m 1xc0
 884 109 l 1
 851 76 l 1
 140 787 l 1
 173 820 l 1xc0
173 76 m 1
 140 109 l 1
 851 820 l 1
 884 787 l 1
 173 76 l 1
EndSplineSet
Validated: 5
EndChar

StartChar: share-ycombinator
Encoding: 24 89 24
Width: 1024
HStem: 76 21G<465 559> 800 20G<256 382.036 641.964 768> 800 20G<256 382.036 641.964 768>
VStem: 465 94<76 401>
LayerCount: 2
Fore
SplineSet
465 401 m 1xd0
 256 820 l 1
 372 820 l 1
 512 541 l 1
 652 820 l 1
 768 820 l 1
 559 401 l 1
 559 76 l 1
 465 76 l 1
 465 401 l 1xd0
EndSplineSet
Validated: 513
EndChar

StartChar: cancel
Encoding: 25 92 25
Width: 1024
HStem: 107 42<402.395 619.195> 747 42<404.805 621.605>
VStem: 171 42<338.395 555.195> 811 42<340.805 557.605>
LayerCount: 2
Fore
SplineSet
512 789 m 1
 701 789 853 637 853 448 c 0
 853 361 821 283 768 223 c 0
 763 218 758 212 753 207 c 2
 737 192 l 2
 677 139 599 107 512 107 c 0
 323 107 171 259 171 448 c 0
 171 535 203 613 256 673 c 2
 271 689 l 2
 276 694 282 699 287 704 c 0
 347 757 425 789 512 789 c 1
512 747 m 1
 437 747 369 718 317 673 c 1
 737 253 l 1
 782 305 811 373 811 448 c 0
 811 613 677 747 512 747 c 1
287 643 m 1
 242 591 213 523 213 448 c 0
 213 283 347 149 512 149 c 0
 587 149 655 178 707 223 c 1
 287 643 l 1
EndSplineSet
Validated: 5
EndChar

StartChar: go-up
Encoding: 26 94 26
Width: 1024
HStem: 694 20G<492.054 531.946>
LayerCount: 2
Fore
SplineSet
173 308 m 1
 140 341 l 1
 512 714 l 1
 884 341 l 1
 851 308 l 1
 512 648 l 1
 173 308 l 1
EndSplineSet
Validated: 517
EndChar

StartChar: matrix-favicon
Encoding: 27 97 27
Width: 1024
HStem: -64 23<27 97 927 997> 557 80<366.445 450.987 585.747 679.787> 937 23<27 97 927 997>
VStem: 0 97<-64 -41 937 960> 0 27<-41 937> 233 100<261 537.765 577 627> 462 100<262 540.565> 691 100<262 545.873> 927 97<-64 -41 937 960> 997 27<-41 937>
LayerCount: 2
Fore
SplineSet
27 937 m 1xef
 27 -41 l 1xef
 97 -41 l 1
 97 -64 l 1
 0 -64 l 1
 0 960 l 1
 97 960 l 1
 97 937 l 1xf7
 27 937 l 1xef
327 627 m 1
 327 577 l 1
 329 577 l 1
 342 596 358 611 377 621 c 0
 396 631 417 637 441 637 c 0
 464 637 485 632 504 623 c 0
 523 614 537 598 547 576 c 1
 558 592 572 606 591 618 c 0
 610 630 632 637 657 637 c 0
 676 637 694 635 711 630 c 0
 728 625 741 617 753 607 c 0
 765 597 774 583 781 566 c 0
 787 549 791 530 791 506 c 2
 791 262 l 1
 691 262 l 1
 691 468 l 2
 691 480 690 492 689 503 c 0
 688 514 686 523 682 531 c 0
 678 539 671 545 663 550 c 0
 655 555 643 557 629 557 c 0
 615 557 604 554 595 549 c 0
 586 543 580 537 575 528 c 0
 570 519 567 509 565 498 c 0
 563 487 562 476 562 465 c 2
 562 262 l 1
 462 262 l 1
 462 466 l 2
 462 477 462 487 461 498 c 0
 461 509 459 519 455 528 c 0
 451 537 445 544 437 549 c 0
 429 554 417 557 401 557 c 0
 396 557 390 556 382 554 c 0
 374 552 367 548 360 542 c 0
 353 536 346 528 341 517 c 0
 336 506 333 491 333 473 c 2
 333 261 l 1
 233 261 l 1
 233 627 l 1
 327 627 l 1
997 -41 m 1xe740
 997 937 l 1xe740
 927 937 l 1
 927 960 l 1
 1024 960 l 1
 1024 -64 l 1
 927 -64 l 1
 927 -41 l 1xe780
 997 -41 l 1xe740
EndSplineSet
Validated: 517
EndChar

StartChar: check
Encoding: 28 99 28
Width: 1024
HStem: 707 20G<831.285 871>
LayerCount: 2
Fore
SplineSet
851 727 m 1
 884 694 l 1
 398 202 l 1
 399 202 l 1
 366 169 l 1
 140 398 l 1
 173 431 l 1
 366 235 l 1
 851 727 l 1
EndSplineSet
Validated: 5
EndChar

StartChar: i
Encoding: 29 105 29
Width: 1024
HStem: 229 177<429.522 503.411> 351 87<571.069 616.209> 615 20G<186.5 281.5 426 557 731.5 827.5> 615 20G<186.5 281.5 426 557 731.5 827.5>
VStem: 172 133<552.824 633.799> 443 128<438.004 601.923>
LayerCount: 2
Fore
SplineSet
839 607 m 1x6c
 830 563 738 436 738 436 c 2
 730 423 727 416 738 402 c 0
 746 391 773 370 790 349 c 0
 822 313 846 282 853 261 c 0
 859 240 848 229 827 229 c 2
 752 229 l 2xac
 724 229 716 252 665 303 c 0
 621 346 601 351 590 351 c 0x4c
 575 351 571 346 571 325 c 2
 571 258 l 2
 571 240 564 229 517 229 c 0
 438 229 352 277 290 366 c 0
 197 496 172 594 172 614 c 0
 172 625 176 635 197 635 c 2
 272 635 l 2
 291 635 298 627 305 606 c 0
 342 500 404 406 429 406 c 0xac
 438 406 443 411 443 435 c 2
 443 545 l 2
 440 596 413 600 413 618 c 0
 413 626 420 635 432 635 c 2
 549 635 l 2
 565 635 571 626 571 607 c 2
 571 459 l 2
 571 443 577 438 582 438 c 0
 591 438 600 444 617 461 c 0
 671 521 709 614 709 614 c 2
 714 625 722 635 741 635 c 2
 816 635 l 2
 839 635 844 623 839 607 c 1x6c
EndSplineSet
Validated: 33
EndChar

StartChar: link
Encoding: 30 108 30
Width: 1024
HStem: 262 46<140 419 605 884> 355 46<465 559 605 605> 495 46<419 419 465 559> 588 46<140 419 605 884>
VStem: 93 47<308 588> 419 46<308 355 541 588> 559 46<308 355 541 588> 884 47<308 588>
LayerCount: 2
Fore
SplineSet
140 634 m 1
 419 634 l 2
 445 634 465 614 465 588 c 2
 465 541 l 1
 559 541 l 1
 559 588 l 2
 559 614 579 634 605 634 c 2
 884 634 l 2
 910 634 931 614 931 588 c 2
 931 308 l 2
 931 282 910 262 884 262 c 2
 605 262 l 2
 579 262 559 282 559 308 c 2
 559 355 l 1
 465 355 l 1
 465 308 l 2
 465 282 445 262 419 262 c 2
 140 262 l 2
 114 262 93 282 93 308 c 2
 93 588 l 2
 93 614 114 634 140 634 c 1
140 588 m 1
 140 308 l 1
 419 308 l 1
 419 355 l 1
 393 355 372 375 372 401 c 2
 372 495 l 2
 372 521 393 541 419 541 c 1
 419 588 l 1
 140 588 l 1
605 588 m 1
 605 541 l 1
 631 541 652 521 652 495 c 2
 652 401 l 2
 652 375 631 355 605 355 c 1
 605 308 l 1
 884 308 l 1
 884 588 l 1
 605 588 l 1
419 495 m 1
 419 401 l 1
 605 401 l 1
 605 495 l 1
 419 495 l 1
EndSplineSet
Validated: 5
EndChar

StartChar: share-mastodon
Encoding: 31 109 31
Width: 955
Flags: W
HStem: 662 20G<325 373.5 581.5 630> 679 21G<466 489.556> 786 174<247.953 411.162 543.838 707.73>
VStem: 0 172<347.038 708.175> 278 147<440 659.804> 531 146<440 660.247>
LayerCount: 2
Fore
SplineSet
935 346 m 1x3c
 921 274 809 195 681 180 c 0
 614 172 548 164 478 167 c 0
 363 172 272 195 272 195 c 1
 272 184 273 173 274 163 c 0
 289 50 387 43 479 40 c 0
 572 37 655 63 655 63 c 1
 659 -22 l 1
 659 -22 594 -57 478 -63 c 0
 414 -67 335 -62 242 -37 c 0
 41 16 6 231 1 448 c 0
 -1 512 0 573 0 624 c 0
 0 846 146 911 146 911 c 1
 219 945 345 959 476 960 c 2
 479 960 l 2
 610 959 737 945 810 911 c 1
 810 911 955 846 955 624 c 1
 955 624 957 460 935 346 c 1x3c
783 607 m 1
 783 662 769 706 741 738 c 0
 712 770 674 786 627 786 c 0
 572 786 531 766 504 724 c 2
 478 679 l 1x7c
 451 724 l 2
 424 766 383 786 328 786 c 0
 281 786 243 770 214 738 c 0
 186 706 172 662 172 607 c 2
 172 338 l 1
 278 338 l 1
 278 599 l 2
 278 654 302 682 348 682 c 0
 399 682 425 649 425 583 c 2
 425 440 l 1
 531 440 l 1
 531 583 l 2
 531 649 556 682 607 682 c 0xbc
 653 682 677 654 677 599 c 2
 677 338 l 1
 783 338 l 1
 783 607 l 1
EndSplineSet
Validated: 549
EndChar

StartChar: share
Encoding: 32 115 32
Width: 1024
HStem: 76 186<685.994 804.006> 262 46<512.007 558.992> 308 47<419.065 464.935> 355 186<219.994 338.006> 541 47<419.065 464.935> 588 46<512.007 558.992> 634 186<685.994 804.006>
VStem: 186 186<388.994 507.006> 419 46<308.008 354.993 541.007 587.992> 512 47<262.065 307.935 588.065 633.935> 652 186<109.994 228.006 667.994 786.006>
LayerCount: 2
Fore
SplineSet
745 820 m 0x03e0
 796 820 838 778 838 727 c 1
 838 676 796 634 745 634 c 0
 694 634 652 676 652 727 c 1
 652 778 694 820 745 820 c 0x03e0
535 634 m 0x05e0
 548 634 559 624 559 611 c 0
 559 598 548 588 535 588 c 0
 522 588 512 598 512 611 c 0
 512 624 522 634 535 634 c 0x05e0
442 588 m 1x09e0
 455 588 465 577 465 564 c 1
 465 551 455 541 442 541 c 1
 429 541 419 551 419 564 c 1
 419 577 429 588 442 588 c 1x09e0
279 541 m 1x11e0
 330 541 372 499 372 448 c 0
 372 397 330 355 279 355 c 1
 228 355 186 397 186 448 c 0
 186 499 228 541 279 541 c 1x11e0
442 355 m 0x21e0
 455 355 465 345 465 332 c 1
 465 319 455 308 442 308 c 0
 429 308 419 319 419 332 c 1
 419 345 429 355 442 355 c 0x21e0
535 308 m 0x41e0
 548 308 559 298 559 285 c 0
 559 272 548 262 535 262 c 0
 522 262 512 272 512 285 c 0
 512 298 522 308 535 308 c 0x41e0
745 262 m 0x81e0
 796 262 838 220 838 169 c 1
 838 118 796 76 745 76 c 0
 694 76 652 118 652 169 c 1
 652 220 694 262 745 262 c 0x81e0
EndSplineSet
Validated: 5
EndChar

StartChar: go-down
Encoding: 33 118 33
Width: 1024
HStem: 614 20G<153 193 831 871> 614 20G<153 193 831 871>
LayerCount: 2
Fore
SplineSet
173 634 m 1x80
 512 295 l 1
 851 634 l 1
 884 601 l 1
 512 229 l 1
 140 601 l 1
 173 634 l 1x80
EndSplineSet
Validated: 513
EndChar

StartChar: new-window
Encoding: 34 119 34
Width: 1024
HStem: 64 128<0 128 256 384 512 896> 704 256<256 896>
VStem: 128 128<-64 64 192 320 448 704> 896 128<192 704>
LayerCount: 2
Fore
SplineSet
1024 960 m 1
 1024 64 l 1
 512 64 l 1
 512 192 l 1
 896 192 l 1
 896 704 l 1
 256 704 l 1
 256 448 l 1
 128 448 l 1
 128 960 l 1
 1024 960 l 1
256 320 m 1
 256 192 l 1
 384 192 l 1
 384 64 l 1
 256 64 l 1
 256 -64 l 1
 128 -64 l 1
 128 64 l 1
 0 64 l 1
 0 192 l 1
 128 192 l 1
 128 320 l 1
 256 320 l 1
EndSplineSet
Validated: 513
EndChar

StartChar: clear
Encoding: 35 120 35
Width: 1024
HStem: 812 20G<364 1024>
LayerCount: 2
Fore
SplineSet
384 832 m 1
 1024 832 l 1
 1024 64 l 1
 384 64 l 1
 0 448 l 1
 384 832 l 1
512 640 m 1
 449 577 l 1
 577 448 l 1
 449 319 l 1
 512 256 l 1
 641 385 l 1
 769 256 l 1
 833 319 l 1
 704 448 l 1
 833 577 l 1
 769 640 l 1
 641 511 l 1
 512 640 l 1
EndSplineSet
Validated: 1
EndChar

StartChar: share-telegram
Encoding: 36 8599 36
Width: 1024
LayerCount: 2
Fore
SplineSet
759 700 m 1
 790 701 801 683 791 636 c 0
 778 575 697 344 675 283 c 0
 657 235 627 133 604 98 c 0
 561 37 514 117 495 165 c 1
 401 351 461 300 252 401 c 1
 182 428 151 478 214 512 c 0
 245 527 393 577 423 588 c 0
 453 599 635 665 705 688 c 0
 727 695 745 700 759 700 c 1
EndSplineSet
Validated: 545
EndChar

StartChar: favorite
Encoding: 37 59649 37
Width: 1024
HStem: 769 20G<502.536 521.464>
LayerCount: 2
Fore
SplineSet
512 789 m 1
 618 565 l 1
 853 529 l 1
 683 354 l 1
 723 107 l 1
 512 223 l 1
 301 107 l 1
 341 354 l 1
 171 529 l 1
 406 565 l 1
 512 789 l 1
EndSplineSet
Validated: 1
EndChar

StartChar: view-catalog
Encoding: 38 59656 38
Width: 1024
HStem: 76 46<186 419> 215 47<233 419> 308 47<233 419> 355 93<566.099 644.606> 401 47<233 419> 495 46<512 838> 541 186<233 419> 588 46<465 605> 681 46<465 605> 774 46<186 652>
VStem: 140 46<122 774> 233 186<215 262 308 355 401 448 541 727> 465 140<588 634 681 727> 465 47<169 495> 559 93<362.099 440.606> 652 46<588 774> 838 46<308 495>
LayerCount: 2
Fore
SplineSet
140 820 m 1xc17180
 698 820 l 1
 698 588 l 1
 652 588 l 1
 652 774 l 1
 186 774 l 1
 186 122 l 1
 419 122 l 1
 419 76 l 1
 140 76 l 1
 140 820 l 1xc17180
233 727 m 1xc27080
 419 727 l 1
 419 541 l 1
 233 541 l 1
 233 727 l 1xc27080
465 727 m 1xc0f880
 605 727 l 1
 605 681 l 1
 465 681 l 1
 465 727 l 1xc0f880
465 634 m 1xc17880
 605 634 l 1
 605 588 l 1
 465 588 l 1
 465 634 l 1xc17880
465 541 m 1xc27480
 884 541 l 1
 884 76 l 1
 465 76 l 1
 465 541 l 1xc27480
512 495 m 1xe47580
 512 169 l 1
 652 308 l 1xe47580
 698 262 l 1
 791 355 l 1xd07580
 838 308 l 1
 838 495 l 1
 512 495 l 1xe47580
233 448 m 1xc87080
 419 448 l 1
 419 401 l 1
 233 401 l 1
 233 448 l 1xc87080
605 448 m 1xd07880
 631 448 652 427 652 401 c 0xc87280
 652 375 631 355 605 355 c 0xd07880
 579 355 559 375 559 401 c 0xc87280
 559 427 579 448 605 448 c 1xd07880
233 355 m 1xe07080
 419 355 l 1
 419 308 l 1
 233 308 l 1
 233 355 l 1xe07080
233 262 m 1
 419 262 l 1
 419 215 l 1
 233 215 l 1
 233 262 l 1
EndSplineSet
Validated: 517
EndChar

StartChar: view-categories
Encoding: 39 59657 39
Width: 1024
HStem: 76 46<186 419 512 838> 215 47<233 419 652 698 745 791> 308 93<559 791> 308 47<233 326> 448 47<233 419 512 838> 541 93<559 605> 588 46<186 559> 681 21G<140 186> 774 46<186 838>
VStem: 140 46<122 588 681 774> 233 93<308 355> 465 47<122 448> 559 46<541 588> 652 46<215 262> 745 46<215 262> 838 46<122 448 541 774>
LayerCount: 2
Fore
SplineSet
140 820 m 1xcdff
 884 820 l 1
 884 541 l 1
 838 541 l 1
 838 774 l 1
 186 774 l 1
 186 681 l 1
 140 681 l 1
 140 820 l 1xcdff
140 634 m 1xcbff
 605 634 l 1
 605 541 l 1
 559 541 l 1xcdff
 559 588 l 1
 186 588 l 1
 186 122 l 1
 419 122 l 1
 419 76 l 1
 140 76 l 1
 140 634 l 1xcbff
233 495 m 1
 419 495 l 1
 419 448 l 1
 233 448 l 1
 233 495 l 1
465 495 m 1
 884 495 l 1
 884 76 l 1
 465 76 l 1
 465 495 l 1
512 448 m 1
 512 122 l 1
 838 122 l 1
 838 448 l 1
 512 448 l 1
559 401 m 1xe9ff
 791 401 l 1
 791 308 l 1
 559 308 l 1
 559 401 l 1xe9ff
233 355 m 1xd9ff
 326 355 l 1
 326 308 l 1
 233 308 l 1
 233 355 l 1xd9ff
233 262 m 1
 419 262 l 1
 419 215 l 1
 233 215 l 1
 233 262 l 1
652 262 m 1
 698 262 l 1
 698 215 l 1
 652 215 l 1
 652 262 l 1
745 262 m 1
 791 262 l 1
 791 215 l 1
 745 215 l 1
 745 262 l 1
EndSplineSet
Validated: 517
EndChar

StartChar: view-fullscreen
Encoding: 40 59658 40
Width: 1024
HStem: 76 21G<140 279 745 884> 215 47<326 698> 541 140<326 698> 681 21G<140 160 864 884> 800 20G<140 279 745 884> 800 20G<140 279 745 884>
VStem: 279 47<262 541> 698 47<262 541>
LayerCount: 2
Fore
SplineSet
279 681 m 1xd3
 326 681 l 1xe3
 745 681 l 1
 745 215 l 1
 279 215 l 1
 279 681 l 1xd3
326 541 m 1
 326 262 l 1
 698 262 l 1
 698 541 l 1
 326 541 l 1
884 681 m 1xdb
 745 820 l 1
 884 820 l 1
 884 681 l 1xdb
884 215 m 1
 884 76 l 1
 745 76 l 1
 884 215 l 1
140 681 m 1
 140 820 l 1
 279 820 l 1
 140 681 l 1
140 215 m 1
 279 76 l 1
 140 76 l 1
 140 215 l 1
EndSplineSet
Validated: 513
EndChar

StartChar: view-list-details
Encoding: 41 59659 41
Width: 1024
HStem: 76 325<140 465> 122 47<559 745> 308 47<559 745> 495 46<186 419> 541 47<559 884> 727 47<559 884> 774 46<186 419>
VStem: 140 46<541 774> 419 46<541 774>
LayerCount: 2
Fore
SplineSet
140 820 m 1x1380
 465 820 l 1
 465 495 l 1
 140 495 l 1
 140 820 l 1x1380
186 774 m 1
 186 541 l 1
 419 541 l 1
 419 774 l 1
 186 774 l 1
140 76 m 1x8180
 140 401 l 1
 465 401 l 1
 465 76 l 1
 140 76 l 1x8180
559 774 m 1x0580
 884 774 l 1
 884 727 l 1
 559 727 l 1
 559 774 l 1x0580
559 355 m 1x2180
 745 355 l 1
 745 308 l 1
 559 308 l 1
 559 355 l 1x2180
559 169 m 1x4180
 745 169 l 1
 745 122 l 1
 559 122 l 1
 559 169 l 1x4180
559 588 m 1x0980
 884 588 l 1
 884 541 l 1
 559 541 l 1
 559 588 l 1x0980
EndSplineSet
Validated: 513
EndChar

StartChar: view-list-icons
Encoding: 42 59660 42
Width: 1024
HStem: 76 46<605 838> 355 46<605 838> 495 46<186 419> 774 46<186 419>
VStem: 140 46<541 774> 419 46<541 774> 559 46<122 355> 838 46<122 355>
LayerCount: 2
Fore
SplineSet
140 820 m 1
 465 820 l 1
 465 495 l 1
 140 495 l 1
 140 820 l 1
186 774 m 1
 186 541 l 1
 419 541 l 1
 419 774 l 1
 186 774 l 1
140 76 m 1
 140 401 l 1
 465 401 l 1
 465 76 l 1
 140 76 l 1
559 820 m 1
 884 820 l 1
 884 495 l 1
 559 495 l 1
 559 820 l 1
559 401 m 1
 884 401 l 1
 884 76 l 1
 559 76 l 1
 559 401 l 1
605 355 m 1
 605 122 l 1
 838 122 l 1
 838 355 l 1
 605 355 l 1
EndSplineSet
Validated: 513
EndChar

StartChar: view-list-text
Encoding: 43 59661 43
Width: 1024
HStem: 76 46<791 884> 122 47<140 745> 215 47<140 884> 401 47<140 605> 495 46<140 884> 681 46<140 559> 774 46<140 884>
VStem: 791 93<76 122>
LayerCount: 2
Fore
SplineSet
140 820 m 1x3f
 884 820 l 1
 884 774 l 1
 140 774 l 1
 140 820 l 1x3f
140 727 m 1
 559 727 l 1
 559 681 l 1
 140 681 l 1
 140 727 l 1
140 541 m 1
 884 541 l 1
 884 495 l 1
 140 495 l 1
 140 541 l 1
140 448 m 1
 605 448 l 1
 605 401 l 1
 140 401 l 1
 140 448 l 1
140 262 m 1
 884 262 l 1
 884 215 l 1
 140 215 l 1
 140 262 l 1
140 169 m 1x7f
 745 169 l 1
 745 122 l 1
 140 122 l 1
 140 169 l 1x7f
791 122 m 1xbf
 884 122 l 1
 884 76 l 1
 791 76 l 1
 791 122 l 1xbf
EndSplineSet
Validated: 513
EndChar

StartChar: view-list-tree
Encoding: 44 59662 44
Width: 1024
HStem: 76 325<559 884> 495 46<186 419 605 838> 774 46<186 419 605 838>
VStem: 140 46<541 774> 419 46<215 495 541 774> 559 46<541 634 681 774> 838 46<541 774>
LayerCount: 2
Fore
SplineSet
140 820 m 1
 465 820 l 1
 465 495 l 1
 140 495 l 1
 140 820 l 1
186 774 m 1
 186 541 l 1
 419 541 l 1
 419 774 l 1
 186 774 l 1
419 495 m 1
 465 495 l 1
 465 215 l 1
 419 215 l 1
 419 495 l 1
465 681 m 1
 465 634 l 1
 559 634 l 1
 559 681 l 1
 465 681 l 1
465 262 m 1
 465 215 l 1
 559 215 l 1
 559 262 l 1
 465 262 l 1
559 820 m 1
 884 820 l 1
 884 495 l 1
 559 495 l 1
 559 820 l 1
605 774 m 1
 605 541 l 1
 838 541 l 1
 838 774 l 1
 605 774 l 1
559 401 m 1
 884 401 l 1
 884 76 l 1
 559 76 l 1
 559 401 l 1
EndSplineSet
Validated: 517
EndChar

StartChar: view-media-playlist
Encoding: 45 59663 45
Width: 1024
HStem: 76 46<419 745> 122 140<158.729 259.794> 169 46<326 372 419 884> 355 46<419 605> 401 140<158.729 259.794> 448 47<326 372 419 884> 634 47<419 559> 681 139<158.729 259.794> 727 47<326 372 419 884>
VStem: 140 139<141.206 242.794 420.206 521.794 700.206 801.271> 326 46<169 215 448 495 727 774>
LayerCount: 2
Fore
SplineSet
209 820 m 0x0160
 248 820 279 790 279 751 c 0
 279 712 248 681 209 681 c 0
 170 681 140 712 140 751 c 0
 140 790 170 820 209 820 c 0x0160
326 774 m 1x00e0
 372 774 l 1
 372 727 l 1
 326 727 l 1
 326 774 l 1x00e0
419 774 m 1
 884 774 l 1
 884 727 l 1
 419 727 l 1
 419 774 l 1
419 681 m 1x0260
 559 681 l 1
 559 634 l 1
 419 634 l 1
 419 681 l 1x0260
209 541 m 0x0860
 248 541 279 510 279 471 c 0
 279 432 248 401 209 401 c 0
 170 401 140 432 140 471 c 0
 140 510 170 541 209 541 c 0x0860
326 495 m 1x0460
 372 495 l 1
 372 448 l 1
 326 448 l 1
 326 495 l 1x0460
419 495 m 1
 884 495 l 1
 884 448 l 1
 419 448 l 1
 419 495 l 1
419 401 m 1x1060
 605 401 l 1
 605 355 l 1
 419 355 l 1
 419 401 l 1x1060
209 262 m 0x4060
 248 262 279 231 279 192 c 0
 279 153 248 122 209 122 c 0
 170 122 140 153 140 192 c 0
 140 231 170 262 209 262 c 0x4060
326 215 m 1x2060
 372 215 l 1
 372 169 l 1
 326 169 l 1
 326 215 l 1x2060
419 215 m 1
 884 215 l 1
 884 169 l 1
 419 169 l 1
 419 215 l 1
419 122 m 1x8060
 745 122 l 1
 745 76 l 1
 419 76 l 1
 419 122 l 1x8060
EndSplineSet
Validated: 513
EndChar

StartChar: linkedin
Encoding: 46 60105 46
Width: 1024
HStem: -64 192<256 384 448 576 704 832> 576 64<271.723 368.277> 768 192<271.723 368.277>
VStem: 0 256<128 576 655.723 752.277> 384 64<128 576> 576 128<128 432.277> 832 192<128 498.803>
LayerCount: 2
Fore
SplineSet
928 960 m 2
 981 960 1024 917 1024 864 c 2
 1024 32 l 2
 1024 -21 981 -64 928 -64 c 2
 96 -64 l 2
 43 -64 0 -21 0 32 c 2
 0 864 l 2
 0 917 43 960 96 960 c 2
 928 960 l 2
384 128 m 1
 384 576 l 1
 256 576 l 1
 256 128 l 1
 384 128 l 1
320 640 m 0
 355 640 384 669 384 704 c 0
 384 739 355 768 320 768 c 0
 285 768 256 739 256 704 c 0
 256 669 285 640 320 640 c 0
832 128 m 1
 832 416 l 2
 832 504 768 576 688 576 c 0
 643 576 602 533 576 497 c 1
 576 576 l 1
 448 576 l 1
 448 128 l 1
 576 128 l 1
 576 384 l 2
 576 419 605 448 640 448 c 0
 675 448 704 419 704 384 c 2
 704 128 l 1
 832 128 l 1
EndSplineSet
Validated: 1
EndChar

StartChar: envelope
Encoding: 47 9993 47
Width: 1024
VWidth: 1724
Flags: W
HStem: 183 34<74 922> 760 2<879 917> 761 2<102 153> 780 20G<70.1372 947>
LayerCount: 2
Fore
SplineSet
72 183 m 1xb0
 74 217 l 1
 922 217 l 1
 917 760 l 1xd0
 102 761 l 1
 108 217 l 1
 74 217 l 1
 70 800 l 1
 947 795 l 1
 951 183 l 1
 72 183 l 1xb0
926 762 m 1
 549 470 l 1
 549 470 531 452 518 452 c 0
 505 452 482 470 482 470 c 1
 95 763 l 1
 153 763 l 1xb0
 495 509 l 1
 517 492 l 1
 540 509 l 1
 879 762 l 1
 926 762 l 1
EndSplineSet
Validated: 5
EndChar
